# xmcd
#
# Track frame offsets:
# 150
# 19655
# 37207
# 56825
# 76026
# 90603
# 113735
# 127885
# 155023
# 167359
# 181863
# 198097
# 229436
# 263616
#
# Disc length: 3882 seconds
#
#
# Revision: 0
# Processed by: cddbd v1.5.2PL0 Copyright (c) Steve Scherf et al.
# Submitted via: FreeRIP 2.951 
#
DISCID=a90f280e
DTITLE=Stan Webb - Webb
DYEAR=2001
DGENRE=Blues
TTITLE0=Koko Road
TTITLE1=Strange Situations
TTITLE2=Guiding Light
TTITLE3=She Loves You
TTITLE4=One And One Is Two
TTITLE5=Passing The Time Away
TTITLE6=The Power Of Love
TTITLE7=The House That Love Lives In
TTITLE8=Took Me For A Ride
TTITLE9=The Paper Sellers Dream
TTITLE10=I Know
TTITLE11=Misty River
TTITLE12=The Last Time
TTITLE13=I Saw Her Standing There
EXTD=
EXTT0=
EXTT1=
EXTT2=
EXTT3=
EXTT4=
EXTT5=
EXTT6=
EXTT7=
EXTT8=
EXTT9=
EXTT10=
EXTT11=
EXTT12=
EXTT13=Bonus Track
PLAYORDER=
